<svg width="147" height="25" viewBox="0 0 147 25" fill="none" xmlns="http://www.w3.org/2000/svg">
<g clip-path="url(#clip0_2203_19415)">
<path d="M33.2344 18.5459V6.79932H34.2592L39.6284 15.9615H39.0937L44.4128 6.79932H45.4377V18.5459H44.2457V8.65961H44.5298L39.6284 17.0476H39.0436L34.1088 8.65961H34.4263V18.5403H33.2344V18.5459Z" fill="black"/>
<path d="M52.7515 18.6293C51.8325 18.6293 51.0305 18.4344 50.3342 18.05C49.638 17.6657 49.0977 17.131 48.7079 16.4571C48.318 15.7832 48.123 15.0034 48.123 14.1345C48.123 13.2656 48.3124 12.4914 48.6856 11.8175C49.0588 11.1491 49.5767 10.62 50.2284 10.2301C50.8856 9.84582 51.6153 9.65088 52.434 9.65088C53.2528 9.65088 53.9991 9.84025 54.6396 10.2134C55.2857 10.5866 55.787 11.1157 56.1602 11.7897C56.5278 12.4636 56.7116 13.2489 56.7116 14.1289C56.7116 14.1846 56.7116 14.2459 56.7004 14.3072C56.7004 14.3684 56.6949 14.4353 56.6949 14.5021H49.0253V13.611H56.0544L55.5865 13.9619C55.5865 13.3269 55.4473 12.7588 55.1743 12.2575C54.9014 11.7618 54.5282 11.3719 54.0604 11.0934C53.5925 10.815 53.0467 10.6757 52.434 10.6757C51.8214 10.6757 51.2867 10.815 50.8077 11.0934C50.3287 11.3719 49.9499 11.7618 49.6826 12.2687C49.4152 12.7699 49.2816 13.3492 49.2816 13.9953V14.1791C49.2816 14.8474 49.4319 15.4378 49.7271 15.9503C50.0223 16.4571 50.4345 16.8581 50.9692 17.1422C51.4983 17.4262 52.1054 17.571 52.7905 17.571C53.3252 17.571 53.8265 17.4764 54.2943 17.287C54.7566 17.0976 55.1576 16.808 55.4918 16.4125L56.1657 17.1867C55.7759 17.6546 55.2857 18.0166 54.6953 18.2617C54.1105 18.5068 53.4644 18.6293 52.7571 18.6293H52.7515Z" fill="black"/>
<path d="M62.6484 18.6296C61.8074 18.6296 61.0555 18.4402 60.3927 18.0559C59.7299 17.6771 59.2063 17.148 58.822 16.4685C58.4433 15.7946 58.2539 15.0092 58.2539 14.1292C58.2539 13.2492 58.4433 12.4527 58.822 11.7788C59.2008 11.1104 59.7243 10.5869 60.3927 10.2081C61.0555 9.83495 61.813 9.64558 62.6484 9.64558C63.4226 9.64558 64.1133 9.81824 64.7204 10.1636C65.3275 10.5089 65.8176 11.0157 66.1796 11.6841C66.5417 12.3525 66.7255 13.1657 66.7255 14.1236C66.7255 15.0816 66.5472 15.8837 66.1908 16.5576C65.8343 17.226 65.3498 17.7384 64.7371 18.0949C64.13 18.4458 63.4338 18.624 62.6484 18.624V18.6296ZM62.732 17.5713C63.3558 17.5713 63.9183 17.4265 64.4196 17.1424C64.9153 16.8584 65.3108 16.4574 65.5948 15.9338C65.8789 15.4158 66.0237 14.8143 66.0237 14.1292C66.0237 13.4441 65.8789 12.8315 65.5948 12.3191C65.3108 11.8066 64.9209 11.4056 64.4196 11.1216C63.9239 10.8375 63.3614 10.6927 62.732 10.6927C62.1026 10.6927 61.5623 10.8375 61.0722 11.1216C60.5821 11.4056 60.1866 11.8066 59.897 12.3191C59.6074 12.8315 59.4625 13.4386 59.4625 14.1292C59.4625 14.8199 59.6074 15.4158 59.897 15.9338C60.1866 16.4518 60.5765 16.8584 61.0722 17.1424C61.5623 17.4265 62.1193 17.5713 62.732 17.5713ZM66.0515 18.546V15.8948L66.1685 14.1181L66.0014 12.3413V6.09766H67.1933V18.546H66.0515Z" fill="black"/>
<path d="M71.1205 7.79086C70.8755 7.79086 70.6694 7.70731 70.4967 7.54022C70.3241 7.37313 70.2461 7.17262 70.2461 6.93869C70.2461 6.70476 70.3296 6.50425 70.4967 6.34272C70.6638 6.1812 70.8699 6.09766 71.1205 6.09766C71.3712 6.09766 71.5717 6.17563 71.7444 6.33159C71.917 6.48754 71.995 6.68248 71.995 6.91641C71.995 7.15034 71.9114 7.36756 71.7499 7.53465C71.5884 7.70174 71.3768 7.78529 71.1205 7.78529V7.79086ZM70.519 18.546V9.73469H71.7109V18.546H70.519Z" fill="black"/>
<path d="M77.5142 18.6296C76.8514 18.6296 76.2833 18.5182 75.7932 18.301C75.3086 18.0838 74.9354 17.783 74.6792 17.3931C74.423 17.0032 74.2949 16.5632 74.2949 16.0564C74.2949 15.5996 74.4007 15.1819 74.6235 14.8087C74.8408 14.4356 75.1972 14.1348 75.6985 13.9009C76.1998 13.6669 76.8626 13.5556 77.7036 13.5556H80.7391V14.4467H77.737C76.8849 14.4467 76.2945 14.5971 75.9658 14.8979C75.6372 15.1986 75.4701 15.5718 75.4701 16.0229C75.4701 16.5242 75.6651 16.9308 76.055 17.2316C76.4448 17.5323 76.9962 17.6827 77.698 17.6827C78.3998 17.6827 78.9457 17.5268 79.4358 17.2204C79.9204 16.9141 80.2768 16.4685 80.4996 15.8837L80.767 16.708C80.5442 17.2928 80.1543 17.7551 79.6029 18.1005C79.0515 18.4458 78.3553 18.6184 77.5142 18.6184V18.6296ZM80.5497 18.546V16.6022L80.4996 16.2847V13.032C80.4996 12.2857 80.288 11.7064 79.8702 11.3054C79.4525 10.9044 78.8287 10.7038 77.9988 10.7038C77.4307 10.7038 76.8848 10.7985 76.3724 10.9879C75.86 11.1773 75.42 11.4279 75.0635 11.7398L74.5288 10.8487C74.9744 10.4699 75.5147 10.1747 76.1385 9.96864C76.7623 9.76256 77.4251 9.65674 78.1213 9.65674C79.2631 9.65674 80.1431 9.94079 80.7614 10.5033C81.3796 11.0659 81.6915 11.9292 81.6915 13.0766V18.546H80.5497Z" fill="black"/>
<path d="M90.2804 18.6461C89.3948 18.6461 88.5817 18.4957 87.8297 18.2005C87.0778 17.9053 86.4317 17.4876 85.8859 16.9529C85.3401 16.4182 84.9112 15.7833 84.6049 15.0592C84.2985 14.3296 84.1426 13.5387 84.1426 12.6753C84.1426 11.812 84.2985 11.0211 84.6049 10.2915C84.9112 9.56187 85.3456 8.93249 85.897 8.39779C86.4484 7.8631 87.1001 7.44536 87.852 7.15017C88.5984 6.85497 89.4171 6.70459 90.3027 6.70459C91.1883 6.70459 91.9513 6.8494 92.7033 7.13346C93.4552 7.41752 94.0846 7.84639 94.597 8.4145L93.8116 9.19983C93.3326 8.7097 92.798 8.35323 92.2187 8.13601C91.6339 7.91879 91.0101 7.8074 90.3417 7.8074C89.6399 7.8074 88.9827 7.92993 88.3811 8.16943C87.7796 8.40893 87.2505 8.74868 86.8049 9.19426C86.3593 9.63427 86.0084 10.1523 85.7578 10.7371C85.5072 11.3219 85.3791 11.968 85.3791 12.6753C85.3791 13.3827 85.5072 14.0232 85.7578 14.6136C86.0084 15.1984 86.3593 15.7164 86.8049 16.1564C87.2505 16.5964 87.7796 16.9418 88.3811 17.1813C88.9827 17.4208 89.6399 17.5433 90.3417 17.5433C91.0435 17.5433 91.6394 17.4319 92.2187 17.2091C92.798 16.9863 93.3326 16.6243 93.8116 16.1342L94.597 16.9251C94.0846 17.4932 93.4496 17.9276 92.7033 18.2172C91.9569 18.5069 91.1493 18.6517 90.286 18.6517L90.2804 18.6461Z" fill="black"/>
<path d="M99.3424 18.6296C98.6796 18.6296 98.1114 18.5182 97.6213 18.301C97.1367 18.0838 96.7636 17.783 96.5074 17.3931C96.2512 17.0032 96.123 16.5632 96.123 16.0564C96.123 15.5996 96.2289 15.1819 96.4517 14.8087C96.6689 14.4356 97.0253 14.1348 97.5266 13.9009C98.0279 13.6669 98.6907 13.5556 99.5317 13.5556H102.567V14.4467H99.5651C98.713 14.4467 98.1226 14.5971 97.794 14.8979C97.4654 15.1986 97.2983 15.5718 97.2983 16.0229C97.2983 16.5242 97.4932 16.9308 97.8831 17.2316C98.273 17.5323 98.8244 17.6827 99.5262 17.6827C100.228 17.6827 100.774 17.5268 101.264 17.2204C101.748 16.9141 102.105 16.4685 102.328 15.8837L102.595 16.708C102.372 17.2928 101.982 17.7551 101.431 18.1005C100.88 18.4458 100.183 18.6184 99.3424 18.6184V18.6296ZM102.378 18.546V16.6022L102.328 16.2847V13.032C102.328 12.2857 102.116 11.7064 101.698 11.3054C101.281 10.9044 100.657 10.7038 99.8269 10.7038C99.2588 10.7038 98.713 10.7985 98.2006 10.9879C97.6881 11.1773 97.2481 11.4279 96.8917 11.7398L96.357 10.8487C96.8026 10.4699 97.3428 10.1747 97.9666 9.96864C98.5904 9.76256 99.2532 9.65674 99.9495 9.65674C101.091 9.65674 101.971 9.94079 102.59 10.5033C103.208 11.0659 103.52 11.9292 103.52 13.0766V18.546H102.378Z" fill="black"/>
<path d="M105.379 10.7263V9.73485H110.832V10.7263H105.379ZM109.545 18.6297C108.715 18.6297 108.08 18.4069 107.635 17.9558C107.189 17.5102 106.966 16.8753 106.966 16.0621V7.79102H108.158V15.9952C108.158 16.5077 108.292 16.9087 108.554 17.1872C108.815 17.4656 109.194 17.6049 109.684 17.6049C110.208 17.6049 110.648 17.4545 110.993 17.1537L111.411 18.0115C111.177 18.2231 110.893 18.3791 110.564 18.4793C110.236 18.5796 109.896 18.6297 109.551 18.6297H109.545Z" fill="black"/>
<path d="M116.051 18.6296C115.389 18.6296 114.82 18.5182 114.33 18.301C113.846 18.0838 113.473 17.783 113.216 17.3931C112.96 17.0032 112.832 16.5632 112.832 16.0564C112.832 15.5996 112.938 15.1819 113.161 14.8087C113.378 14.4356 113.734 14.1348 114.236 13.9009C114.737 13.6669 115.4 13.5556 116.241 13.5556H119.276V14.4467H116.274C115.422 14.4467 114.832 14.5971 114.503 14.8979C114.174 15.1986 114.007 15.5718 114.007 16.0229C114.007 16.5242 114.202 16.9308 114.592 17.2316C114.982 17.5323 115.533 17.6827 116.235 17.6827C116.937 17.6827 117.483 17.5268 117.973 17.2204C118.457 16.9141 118.814 16.4685 119.037 15.8837L119.304 16.708C119.081 17.2928 118.691 17.7551 118.14 18.1005C117.589 18.4458 116.892 18.6184 116.051 18.6184V18.6296ZM119.087 18.546V16.6022L119.037 16.2847V13.032C119.037 12.2857 118.825 11.7064 118.407 11.3054C117.99 10.9044 117.366 10.7038 116.536 10.7038C115.968 10.7038 115.422 10.7985 114.91 10.9879C114.397 11.1773 113.957 11.4279 113.601 11.7398L113.066 10.8487C113.512 10.4699 114.052 10.1747 114.676 9.96864C115.299 9.76256 115.962 9.65674 116.658 9.65674C117.8 9.65674 118.68 9.94079 119.298 10.5033C119.917 11.0659 120.229 11.9292 120.229 13.0766V18.546H119.087Z" fill="black"/>
<path d="M123.471 18.5457V6.0918H124.663V18.5402H123.471V18.5457Z" fill="black"/>
<path d="M131.574 18.6293C130.71 18.6293 129.947 18.4344 129.273 18.05C128.605 17.6657 128.07 17.131 127.681 16.446C127.291 15.7664 127.096 14.9923 127.096 14.1289C127.096 13.2656 127.291 12.4692 127.681 11.7952C128.07 11.1269 128.605 10.5977 129.273 10.219C129.942 9.84025 130.71 9.65088 131.574 9.65088C132.437 9.65088 133.222 9.84582 133.896 10.2301C134.57 10.6144 135.105 11.1436 135.489 11.8064C135.874 12.4692 136.069 13.2489 136.069 14.1289C136.069 15.009 135.874 15.7776 135.489 16.4515C135.105 17.1255 134.57 17.6602 133.885 18.0445C133.206 18.4288 132.432 18.6237 131.568 18.6237L131.574 18.6293ZM131.574 17.571C132.209 17.571 132.777 17.4262 133.267 17.1422C133.757 16.8581 134.147 16.4571 134.431 15.9335C134.715 15.4156 134.86 14.814 134.86 14.1289C134.86 13.4439 134.715 12.8312 134.431 12.3188C134.147 11.8064 133.757 11.4053 133.267 11.1213C132.777 10.8372 132.214 10.6924 131.59 10.6924C130.967 10.6924 130.404 10.8372 129.914 11.1213C129.424 11.4053 129.028 11.8064 128.739 12.3188C128.449 12.8312 128.304 13.4383 128.304 14.1289C128.304 14.8196 128.449 15.4156 128.739 15.9335C129.028 16.4515 129.418 16.8581 129.903 17.1422C130.387 17.4262 130.944 17.571 131.574 17.571Z" fill="black"/>
<path d="M142.039 18.2062C141.198 18.2062 140.446 18.0224 139.772 17.6604C139.098 17.2983 138.575 16.7915 138.185 16.1398C137.8 15.4937 137.605 14.7474 137.605 13.9064C137.605 13.0653 137.8 12.3246 138.185 11.684C138.569 11.0379 139.098 10.5422 139.772 10.1802C140.44 9.82374 141.198 9.64551 142.039 9.64551C142.824 9.64551 143.526 9.80703 144.155 10.1301C144.779 10.4531 145.281 10.9377 145.648 11.5726C146.016 12.2076 146.2 12.9874 146.2 13.9064C146.2 14.8254 146.016 15.5996 145.648 16.2401C145.281 16.8806 144.779 17.3652 144.155 17.6993C143.532 18.0335 142.824 18.2006 142.039 18.2006V18.2062ZM142.262 21.8822C141.454 21.8822 140.686 21.7653 139.945 21.5313C139.204 21.2974 138.608 20.9632 138.151 20.5232L138.753 19.6153C139.165 19.9829 139.677 20.2781 140.29 20.4954C140.897 20.7126 141.543 20.824 142.228 20.824C143.348 20.824 144.167 20.5622 144.696 20.0442C145.219 19.5262 145.487 18.713 145.487 17.6214V15.4213L145.654 13.9119L145.537 12.4025V9.73462H146.679V17.471C146.679 18.9915 146.305 20.1055 145.565 20.8184C144.818 21.5258 143.721 21.8822 142.267 21.8822H142.262ZM142.162 17.1535C142.808 17.1535 143.387 17.0143 143.888 16.7414C144.389 16.4684 144.79 16.0897 145.08 15.5996C145.37 15.115 145.515 14.5524 145.515 13.9119C145.515 13.2714 145.37 12.7144 145.08 12.2354C144.79 11.7564 144.395 11.3777 143.888 11.1048C143.381 10.8319 142.808 10.6926 142.162 10.6926C141.515 10.6926 140.953 10.8319 140.44 11.1048C139.934 11.3777 139.533 11.7564 139.249 12.2354C138.964 12.7144 138.82 13.277 138.82 13.9119C138.82 14.5469 138.964 15.1094 139.249 15.5996C139.533 16.0841 139.928 16.4684 140.44 16.7414C140.947 17.0143 141.521 17.1535 142.162 17.1535Z" fill="black"/>
<path d="M24 24.5H14.9993V18.4958H9.0007V24.5H0V0.5H3.00209L11.9972 9.5007L20.9979 0.5H24V24.5Z" fill="#2E9F65"/>
<path d="M3.00209 12.4971H0V24.4999H3.00209V15.4992H5.99861L3.00209 12.4971Z" fill="#126235"/>
<path d="M20.9982 12.4971H24.0003V24.4999H20.9982V15.4992H17.9961L20.9982 12.4971Z" fill="#126235"/>
<path d="M20.9978 0.5L11.9971 9.5007L3.00195 0.5V12.4972L5.99847 15.4993V24.5H9.00056V18.4958L11.9971 21.4979L14.9992 18.4958V24.5H17.9957V15.4993L20.9978 12.4972V0.5Z" fill="#5BAA5F"/>
<path d="M14.9986 18.4956L11.9965 21.4977L9 18.4956V21.4977L11.9965 24.4998L14.9986 21.4977V18.4956Z" fill="#126235"/>
</g>
<defs>
<clipPath id="clip0_2203_19415">
<rect width="146.673" height="24" fill="white" transform="translate(0 0.5)"/>
</clipPath>
</defs>
</svg>
